<svg id="Layer_1" enable-background="new 0 0 68 68" height="512" viewBox="0 0 68 68" width="512" xmlns="http://www.w3.org/2000/svg"><g id="_x31_06"><path d="m10.3 57.4c.1 1.6.4 2.9 1.2 4.2 1.7 2.5.5 2.4 41.5 2.4 2.7 0 4.8-2.3 4.8-5.2v-43c0-.7-.3-1.4-.7-1.9 0-.1 0-.3-.1-.4-1.8-2.6-4.3-4.8-6.8-6.9-1.6-1.4-2.2-2.2-3.6-2.2-15.1.2-21.1 0-29.4-.1-4.3-1-6 1.1-6.7 5.3-.3 1.8 0 22.4 0 31.6l-.1 1.2c-.2 4.9-.4 10-.1 15zm44.4-44.5-4.2 1.1c-.5.1-1-.4-1-1l.4-4.8c1.7 1.6 3.3 3.1 4.8 4.7zm-8-6.9c.9 0 1.7.8 1.7 1.8-.1 1.3-.4 4.5-.4 5.2-.1.9 0 1.9.7 2.5 2.3 2 6.2-1.5 6.8 5.9.3 3.6.6 7.3.9 10.9 0-.1 0-.3 0-.4v26.9c0 1.9-1.4 3.6-3.4 3.7-41-.4-31.7-.3-36.2-.3-1.7 0-3.1-1.5-3.1-3.4 0-33.3-.1-45.1 0-49.4.1-4.2.3-3.7 3.4-3.6 3.6 0 11.5.3 29.6.2z"/><path d="m19.1 44.7c3.6 1.3 6.8 3.7 9.2 5.6.3.3.8.2 1.1-.1s.2-.8-.1-1.1c-2.2-1.8-5.2-4-8.6-5.5 2.1-2.6 4.1-5.4 5.9-8.3.2-.3.1-.8-.2-1s-.8-.1-1 .2c-2 3.1-4.1 6.1-6.5 8.9-.5.5-.3 1.1.2 1.3z"/><path d="m31 53.5c.4.2.8.1 1-.3l11-19.8c.2-.4.1-.8-.3-1s-.8-.1-1 .3l-11 19.7c-.2.4-.1.9.3 1.1z"/><path d="m43.3 37.4 6.3 5.5c-3 2-6.2 4.3-9 6.1-.3.2-.4.7-.2 1s.7.4 1 .2c3.1-2 6.7-4.6 9.8-6.7.4-.3.5-.9.1-1.2l-7-6.2c-.3-.1-.8-.1-1.1.2s-.2.8.1 1.1z"/></g></svg>