<svg id="Capa_1" enable-background="new 0 0 509.9 509.9" height="512" viewBox="0 0 509.9 509.9" width="512" xmlns="http://www.w3.org/2000/svg"><g id="XMLID_469_"><path id="XMLID_487_" d="m365.195 165.161v-54.916c0-60.789-49.456-110.245-110.245-110.245s-110.245 49.456-110.245 110.245v54.916h-57.311v300.614c0 24.331 19.795 44.126 44.127 44.126h246.859c24.332 0 44.127-19.795 44.127-44.126v-300.614zm-190.49-54.916c0-44.247 35.998-80.245 80.245-80.245s80.245 35.998 80.245 80.245v54.916h-160.49zm217.802 355.529c0 7.789-6.337 14.126-14.127 14.126h-246.859c-7.79 0-14.127-6.337-14.127-14.126v-270.613h275.113z"/><path id="XMLID_489_" d="m181.212 300.033-41.975 41.975 41.975 41.974 21.213-21.212-20.762-20.762 20.762-20.762z"/><path id="XMLID_490_" d="m307.476 321.246 20.761 20.762-20.761 20.762 21.212 21.212 41.975-41.974-41.975-41.975z"/><path id="XMLID_491_" d="m194.109 327h121.683v30h-121.683z" transform="matrix(.439 -.899 .899 .439 -164.232 421.057)"/></g></svg>