<?xml version="1.0" encoding="iso-8859-1"?>
<!-- Generator: Adobe Illustrator 19.0.0, SVG Export Plug-In . SVG Version: 6.00 Build 0)  -->
<svg version="1.1" id="Layer_1" xmlns="http://www.w3.org/2000/svg" xmlns:xlink="http://www.w3.org/1999/xlink" x="0px" y="0px"
	 viewBox="0 0 512 512" style="enable-background:new 0 0 512 512;" xml:space="preserve">
<g>
	<g>
		<g>
			<path d="M486.4,0H25.6C11.486,0,0,11.486,0,25.6v51.2v409.6C0,500.514,11.486,512,25.6,512h460.8c14.114,0,25.6-11.486,25.6-25.6
				V76.8V25.6C512,11.486,500.514,0,486.4,0z M17.067,25.6c0-4.71,3.823-8.533,8.533-8.533h460.8c4.71,0,8.533,3.823,8.533,8.533
				v42.667H17.067V25.6z M494.933,486.4c0,4.71-3.823,8.533-8.533,8.533H25.6c-4.71,0-8.533-3.823-8.533-8.533V85.333h477.867V486.4
				z"/>
			<path d="M42.667,34.133c-4.719,0-8.533,3.814-8.533,8.533s3.814,8.533,8.533,8.533s8.533-3.814,8.533-8.533
				S47.386,34.133,42.667,34.133z"/>
			<path d="M76.8,34.133c-4.719,0-8.533,3.814-8.533,8.533S72.081,51.2,76.8,51.2s8.533-3.814,8.533-8.533
				S81.519,34.133,76.8,34.133z"/>
			<path d="M110.933,34.133c-4.719,0-8.533,3.814-8.533,8.533s3.814,8.533,8.533,8.533s8.533-3.814,8.533-8.533
				S115.652,34.133,110.933,34.133z"/>
			<path d="M256,256c4.719,0,8.533-3.814,8.533-8.533s-3.814-8.533-8.533-8.533s-8.533,3.814-8.533,8.533S251.281,256,256,256z"/>
			<path d="M179.2,310.733v30.601c0,18.825,15.309,34.133,34.133,34.133c4.719,0,8.533-3.814,8.533-8.533s-3.814-8.533-8.533-8.533
				c-9.412,0-17.067-7.654-17.067-17.067V307.2c0-2.27-0.896-4.437-2.5-6.033l-11.034-11.034l11.034-11.034
				c1.604-1.596,2.5-3.763,2.5-6.033v-34.133c0-9.412,7.654-17.067,17.067-17.067c4.719,0,8.533-3.814,8.533-8.533
				c0-4.719-3.814-8.533-8.533-8.533c-18.825,0-34.133,15.309-34.133,34.133v30.601L164.634,284.1c-3.337,3.337-3.337,8.73,0,12.066
				L179.2,310.733z"/>
			<path d="M315.733,307.2v34.133c0,9.412-7.654,17.067-17.067,17.067c-4.719,0-8.533,3.814-8.533,8.533s3.814,8.533,8.533,8.533
				c18.825,0,34.133-15.309,34.133-34.133v-30.601l14.566-14.566c3.337-3.337,3.337-8.73,0-12.066l-14.558-14.558l0.06-30.609
				c0-18.825-15.343-34.133-34.202-34.133c-4.719,0-8.533,3.814-8.533,8.533c0,4.719,3.814,8.533,8.533,8.533
				c9.446,0,17.135,7.654,17.135,17.05l-0.068,34.133c-0.009,2.27,0.887,4.454,2.5,6.05l11.034,11.034l-11.034,11.034
				C316.629,302.763,315.733,304.93,315.733,307.2z"/>
			<path d="M244.77,349.423c0.896,0.299,1.809,0.444,2.697,0.444c3.576,0,6.903-2.261,8.09-5.837l8.533-25.6
				c1.493-4.471-0.922-9.301-5.393-10.786c-4.497-1.493-9.301,0.922-10.786,5.393l-8.533,25.6
				C237.884,343.108,240.299,347.938,244.77,349.423z"/>
		</g>
	</g>
</g>
<g>
</g>
<g>
</g>
<g>
</g>
<g>
</g>
<g>
</g>
<g>
</g>
<g>
</g>
<g>
</g>
<g>
</g>
<g>
</g>
<g>
</g>
<g>
</g>
<g>
</g>
<g>
</g>
<g>
</g>
</svg>
